<svg width="13" height="10" viewBox="0 0 52 50" fill="none" xmlns="http://www.w3.org/2000/svg">
    <rect y="0.00268555" width="51.9406" height="49.158" rx="10" fill="#1D2C59"/>
    <path d="M22.5796 13.8322C22.5796 13.2285 22.0939 12.7428 21.4902 12.7428C20.8865 12.7428 20.4009 13.2285 20.4009 13.8322V15.6479H18.5852C16.9829 15.6479 15.6802 16.9506 15.6802 18.5529V33.0781C15.6802 34.6804 16.9829 35.9831 18.5852 35.9831H33.1104C34.7127 35.9831 36.0154 34.6804 36.0154 33.0781V18.5529C36.0154 16.9506 34.7127 15.6479 33.1104 15.6479H31.2947V13.8322C31.2947 13.2285 30.809 12.7428 30.2053 12.7428C29.6016 12.7428 29.1159 13.2285 29.1159 13.8322V15.6479H22.5796V13.8322ZM17.8589 21.4579H21.4902V23.9998H17.8589V21.4579ZM17.8589 26.1786H21.4902V29.0836H17.8589V26.1786ZM23.669 26.1786H28.0266V29.0836H23.669V26.1786ZM30.2053 26.1786H33.8366V29.0836H30.2053V26.1786ZM33.8366 23.9998H30.2053V21.4579H33.8366V23.9998ZM33.8366 31.2624V33.0781C33.8366 33.4775 33.5098 33.8043 33.1104 33.8043H30.2053V31.2624H33.8366ZM28.0266 31.2624V33.8043H23.669V31.2624H28.0266ZM21.4902 31.2624V33.8043H18.5852C18.1858 33.8043 17.8589 33.4775 17.8589 33.0781V31.2624H21.4902ZM28.0266 23.9998H23.669V21.4579H28.0266V23.9998Z"
          fill="white"/>
</svg>
